<svg version="1.1" id="Ebene_1" xmlns="http://www.w3.org/2000/svg" x="0" y="0" viewBox="0 0 600 600" style="enable-background:new 0 0 600 600" xml:space="preserve"><style>.st2{fill:#232120}</style><path d="M303.2 480 69.8 246.6 303.2 13.2c.6.6 1.1 1.2 1.7 1.8l210.7 210.7 19.5 19.5 1.4 1.4-1.7 1.7L305 478.1c-.7.6-1.2 1.3-1.8 1.9zM107.5 245.7c-.1.1-.3.3-.4.5v.2" style="fill:#fff;stroke:#fff;stroke-width:2;stroke-miterlimit:10"/><path d="M303.2 480 69.8 246.6 303.2 13.2c.6.6 1.1 1.2 1.7 1.8l210.7 210.7 19.5 19.5 1.4 1.4-1.7 1.7L305 478.1c-.7.6-1.2 1.3-1.8 1.9zm196.5-233.6c-1.6-2-195.4-195.7-196.4-196.3-.1.1-.3.1-.4.2-65.1 65.1-130.3 130.2-195.4 195.4-.1.1-.3.3-.4.5v.4c2.4 2.9 195.1 195.4 196.3 196.2 65.5-65.5 130.9-130.9 196.3-196.4z" style="fill:#e30613;stroke:#e30613;stroke-width:.25;stroke-miterlimit:10"/><path class="st2" d="M342.2 271.4c3 1.4 6.1 2.9 9.1 4.4l27.3 12.9c2 .9 4.1.8 6.1.3 1.6-.4 3.1-.9 4.6-1.5 3.5-1.3 7.1-2.3 10.9-2.4 5.3 0 10.1 1.7 14.2 5.1 3.1 2.7 4.4 6.1 3.5 10.2-.6 2.9-2.4 4.9-4.9 6.3-2.7 1.5-5.4 2.9-8.2 4.1-1.1.5-1.6 1.2-1.8 2.4-.3 2.1-.9 4.2-1.2 6.3-.9 8-10.1 12.5-17.1 9.9-4.3-1.6-7.6-4.5-9.7-8.6-.6-1.2-.9-2.6-1.2-4-.7-3.9-2.3-7.2-5.4-9.7-1-.8-2.1-1.5-3.3-2.1-11.7-5.7-23.5-11.3-35.3-17-.1 0-.2-.1-.4-.1-1.3.9-2.6 1.8-4.1 2.7-5.3 3.1-10.8 5.8-16.4 8-3.5 1.4-7 1.6-10.7.5-7.8-2.2-15.2-5.1-22-9.6-.3-.2-.6-.4-1-.6-2.1 1-4.3 2-6.5 3.1L242 304.6c-5.5 2.5-8.6 6.7-9.5 12.7-.6 4-2.9 6.9-5.9 9.3-1.2 1-2.7 1.8-4.1 2.5-6.2 2.7-13.7 0-16.6-5.7-.5-1-.8-2.1-1.1-3.2-.5-2.4-1-4.9-1.4-7.3-.1-.9-.5-1.3-1.3-1.7-2.5-1.2-5.1-2.4-7.5-3.7-1.7-.9-3.3-2.1-4.5-3.7-2.3-3.2-2.2-8.1.1-11.2 3.1-4.1 7.4-6 12.3-7 3.6-.7 7.1-.3 10.6.7 1.8.5 3.5 1.2 5.3 1.8 1 .3 2 .8 3.1 1 2.5.5 4.9.5 7.4-.7 10.4-5 20.8-9.9 31.3-14.8.5-.2 1-.5 1.5-.8-.3-1.4-.6-2.6-1-3.9-.1-.4-.6-.8-1-1-3.6-1.9-7.3-3.7-10.9-5.6-8.4-4.2-16.7-8.5-25.1-12.7-2.4-1.2-4.8-1.9-7.5-1.6-1.3.1-2.6.4-3.7.9-2 .8-3.8 1.9-5.8 2.6-1.7.7-3.4 1.2-5.2 1.7-.7.2-1.4.2-2.2.2-4.4.1-8-2.4-9.4-6.6-.5-1.4-.6-2.9-.7-4.4-.1-2 0-3.9 0-5.9-.1-4.2 1.8-7.5 4.7-10.3.7-.7 1.5-1.3 2.2-1.8.3-1.8.6-3.6 1-5.4.5-2.3 1.7-4.3 3.4-6 1.6-1.5 3.6-2.3 5.7-2.5 4.5-.4 8.6 1 12.3 3.5 2.7 1.9 4.6 4.4 6.4 7.1 2.2 3.2 4.4 6.3 7.5 8.7.8.6 1.7 1.3 2.6 1.7 4 2 8.1 3.9 12.2 5.8.2.1.5.2 1 .3-1.1-1.4-2-2.5-2.8-3.7-2.1-3-3.1-6.4-3-10 .2-4.9.7-9.7 1.2-14.6.1-1.3-.1-2.3-.8-3.3-3.3-4.7-6.5-9.5-8.7-14.8-1.4-3.3-2.3-6.7-2.7-10.2-.5-4.2.8-7.9 3.4-11.1 3.1-3.9 6.7-7.2 10.3-10.5 4.2-3.9 8.4-7.9 12.6-11.8 3.1-2.9 6-5.8 9.5-8.3 2.9-2.1 6.2-3.6 9.4-5 10.8-4.7 22.1-6.5 33.9-5 8.7 1.1 16.5 4.4 23.5 9.5 4.9 3.5 9.2 7.6 13.7 11.5 4.7 4.1 9.3 8.3 14 12.4 3 2.6 5.8 5.4 8 8.7 1.8 2.6 2.7 5.4 2.5 8.6-.4 5.5-2.1 10.6-4.8 15.3-2.3 4-4.9 7.9-7.5 11.8-.5.8-.6 1.5-.4 2.3.8 4.1 1.3 8.3 1.5 12.5.1 4.1-.5 8-2.5 11.5-1.3 2.3-2.9 4.3-5 5.9-.3.2-.5.5-.7.9 1-.4 2-.9 2.9-1.3 5.1-2.4 10.1-4.8 15.2-7.2 2.5-1.2 4.7-2.9 6.4-5.1 2.2-2.9 4.3-5.8 6.6-8.7 4-5 9.3-7.7 15.8-7.6 4.2.1 7.2 2.2 9.1 6 1 2 1.4 4.2 1.6 6.5.1.9.4 1.6 1.2 2.2 2 1.4 3.6 3.3 4.7 5.5.9 1.8 1.4 3.7 1.4 5.7v6.4c0 2.3-.6 4.5-1.9 6.5-1.7 2.6-4.2 3.9-7.3 4.2-2.3.2-4.6-.3-6.7-1.2-2.1-.9-4.1-1.8-6.1-2.8-4.2-2.2-8.4-1.9-12.5.2-5.6 2.8-11.2 5.6-16.8 8.5-7.4 3.8-14.9 7.5-22.3 11.3-1.2.3-2.2.7-1.9 2.1zm19.7-81.1c0-.1.2-.2.3-.4 1.5-3.2 2.5-6.5 2.8-10 .2-1.8-.3-3.4-1.3-4.8-2.6-3.6-5.9-6.4-9.1-9.3-4.3-3.8-8.7-7.6-12.9-11.4-3.6-3.2-7.2-6.4-11.1-9.3-5.7-4.1-12-7-19-8.1-10-1.6-19.7-.7-29.3 2.6-6.9 2.4-12.8 6.1-18 11.3-5.4 5.4-11.1 10.5-16.6 15.7-2.4 2.3-4.8 4.7-7.1 7.2-1.9 2-2.7 4.4-2.3 7.3.6 3.9 2 7.5 3.8 11 .2.3.4.6.6 1 0-2.1-.1-4.2-.1-6.3 0-3.9 1-7.5 3-10.8 1.7-2.9 4.1-5.2 6.5-7.5 1.2-1.1 3-1 4.2.3.4.5.8 1.1 1.3 1.6.6.6.5 1.4.2 2-.3.5-.6 1-1 1.4-1.3 1.4-2.7 2.7-3.9 4.2-1.6 1.9-2.7 4.1-3 6.6-.3 2.8-.4 5.6.2 8.4.7 2.7 1.2 5.4 1.9 8 1 3.7 1.1 7.4-.1 11.2-1.3 4.3-1.5 8.8-1.2 13.3.3 4.2 2.1 7.6 5.6 9.9 3.5 2.3 7 4.5 10.5 6.6 3.3 2 6.6 3.9 9.8 6 4.1 2.5 5.9 6.3 5.6 11-.1.9 0 1.9-.1 2.8-.2 1.3.4 2.3 1.4 3.1 1.5 1.1 3 2.2 4.6 3.1 7.2 3.8 14.7 5.1 22.7 2.4 3.6-1.2 7-2.8 9.8-5.5.9-.8 1.3-1.8 1.3-3 0-2 0-3.9.2-5.9.3-3.1 1.9-5.6 4.5-7.3 1.6-1.1 3.3-2.2 5-3.2 5.4-3.4 10.9-6.6 16.2-10.1 4.2-2.7 6.3-6.8 6.3-11.8 0-.8 0-1.7-.1-2.5-.2-4.7-1-9.4-2.2-14-.2-.8-.2-1.6 0-2.4l2.7-12c.5-2.3.6-4.6.5-7-.1-1.9-.6-3.6-1.7-5.1-1.4-1.8-3-3.6-4.5-5.4-.4-.5-.9-1-1.4-1.6 1.8-1.6 3.4-3.2 5.1-4.8 1.6 1.7 3 3.3 4.4 4.9 3.5 4 5.4 8.5 5.2 13.9-.4.8-.2 1.8-.2 2.7zm-26 60.8c-.1-.1-.2-.2-.4-.2-1.6 1-3.1 2-4.7 3-1.4 1-2 2.4-2 4.1.1 1.3 0 2.6 0 3.9.1 2.6-.9 4.7-2.6 6.6-2.8 3.1-6.2 5.3-10 6.9-6.3 2.7-12.7 4-19.6 2.7-3.5-.7-6.9-1.7-10.2-3.2-3.2-1.5-6.2-3.2-8.6-5.8-1.9-2-3.1-4.3-2.9-7.1.1-1.2 0-2.4.1-3.6.2-2.1-.6-3.6-2.3-4.7-.4-.2-.7-.5-1-.7-1.4-.8-2.8-1.6-4.3-2.6v15.2c0 2.1.4 4 1.4 5.8 2.9 5.6 7.3 9.8 12.5 13.1 5.4 3.4 11.4 5.5 17.6 7.3 3.1.9 6 .9 8.9-.5 4.1-1.9 8.3-3.6 12.2-5.7 5.5-2.9 10-7 13.3-12.3 1.6-2.5 2.6-5.2 2.5-8.3-.1-2.4 0-4.9 0-7.3 0-2.2 0-4.4.1-6.6zm-.9 31.7c.6.3 1.1.5 1.6.8l31.2 15c2.4 1.2 4.6 2.6 6.5 4.5 3.5 3.5 5.5 7.7 6.3 12.6.6 3.4 3.6 6.6 6.9 7.4 3.5.8 6.6-1.2 7.3-4.7 1.2-6.2 2.5-12.3 3.7-18.4.1-.3.1-.6.2-.9.9-2.3 3.6-3.1 5.5-1.5 1 .9 1.4 2 1.2 3.4-.1.7-.5 1.3-.1 2.3 1.6-1 3.3-1.8 4.7-2.9 1.3-1 1.4-2.7.3-4-.5-.5-1-1.1-1.6-1.5-2.6-1.7-5.5-2.7-8.6-2.6-2.5.1-4.9.7-7.3 1.5-1.6.6-3.2 1.2-4.8 1.7-3.1 1.1-6.2 1.1-9.4.7-1.8-.2-3.4-1.2-5-2-10.3-4.9-20.6-9.7-30.9-14.6-1.2-.6-2.4-1.1-3.7-1.7-1.3 1.5-2.6 3.1-4 4.9zM201.2 303c-.2-1-.3-1.8-.4-2.5-.2-1.8 1-3.4 2.8-3.8 1.7-.4 3.4.7 4 2.4.1.4.2.9.3 1.4 1.2 6.1 2.5 12.2 3.7 18.3.3 1.3.9 2.3 1.9 3.1 1.9 1.4 4 1.8 6.2.9 1.8-.7 3.2-1.8 4.4-3.3.9-1.1 1.4-2.2 1.6-3.6 1.3-8.2 5.8-14 13.3-17.5 9.6-4.5 19.1-9 28.6-13.5.6-.3 1.1-.6 1.6-.9-1.5-1.7-2.8-3.4-4.3-5.1-.4.2-.8.3-1.2.5-11.1 5.3-22.2 10.5-33.2 15.8-.8.4-1.7.7-2.6.9-3 .5-6 .5-8.9-.4-1.4-.4-2.7-1-4.1-1.4-1.7-.6-3.4-1.2-5.2-1.6-3.7-.9-7.2-.5-10.6 1.3-1.2.6-2.3 1.4-3.2 2.5-.9 1.2-.9 2.8.2 3.8 1.4 1.1 3.2 1.8 5.1 2.7zm141.4-50.4c0 1.1.1 2.1.1 3.2v3c0 1 0 2 .1 3.1l1.4-.7c11.8-6 23.6-12 35.4-17.9 6.2-3.1 12.4-3.4 18.7-.2 1.7.8 3.3 1.7 5.1 2.4 1.1.4 2.3.8 3.4.9 1.8.2 3.1-.7 3.3-2.5.2-2.3.2-4.6.2-6.9-.4.2-.6.5-.7.7-1.1 1.6-2.6 2.1-4.2 1.6-1.5-.5-2.3-1.8-2.3-3.6 0-1.9.1-3.7.1-5.6 0-2.5-.1-5-.3-7.4-.1-1.1-.5-2.2-.9-3.3-.4-1.1-1.4-1.7-2.5-1.8-.7 0-1.5 0-2.2.1-3.7.6-6.5 2.6-8.7 5.5-1.7 2.3-3.3 4.7-5 6.9-2.7 3.4-5.9 6.4-9.9 8.3-6.1 2.9-12.3 5.8-18.4 8.6-4.1 1.7-8.3 3.6-12.7 5.6zm-146.5-16c0 2.4-.2 4.6 0 6.8s1.5 3.2 3.7 2.9c1.3-.2 2.5-.6 3.7-1.1 2-.8 3.8-1.9 5.8-2.6 1.7-.7 3.4-1.3 5.2-1.5 4.3-.6 8.4.4 12.3 2.3 8.8 4.5 17.5 8.9 26.3 13.4 2.4 1.2 4.7 2.4 6.9 3.5v-9.2c-.2-.1-.7-.3-1.1-.5-8.8-4.1-17.5-8.2-26.3-12.3-2.6-1.2-4.9-2.9-6.9-4.9-2.5-2.5-4.6-5.3-6.6-8.2-1.3-1.8-2.5-3.7-4.3-5-2.2-1.6-4.7-2.6-7.5-2.6-1.4 0-2.6.5-3 2-.4 1.1-.8 2.2-.9 3.3-.2 2.3-.3 4.7-.3 7 0 2.1.1 4.1.1 6.2 0 1.6-1 2.8-2.4 3.3s-2.9 0-3.9-1.2c-.2-.6-.4-1-.8-1.6z"/><path class="st2" d="M283 226.1c-4.8 5.3-12.1 5.1-16.7 2.2-2-1.3-3.7-3-5.1-5-1.8-2.7-3.2-5.6-3.9-8.7-.2-.9-.4-2-.3-2.9.1-2.8 2.2-4.7 5-4.7h20.8c2.5 0 4.7.8 6.7 2.2 1.6 1.2 2.2 2.7 1.6 4.6-.4 1.4-1 2.8-1.7 4-1.8 2.8-3.9 5.6-6.4 8.3zM339.7 226.1c-4.5 4.4-10.8 5.5-16 2.7-2.1-1.1-3.8-2.8-5.2-4.6-1.6-2-3.2-4.1-4.6-6.3-.8-1.3-1.4-2.8-1.8-4.3-.6-1.8.1-3.3 1.5-4.4 2-1.5 4.2-2.3 6.8-2.3 6.8 0 13.6.1 20.4 0 3.1-.1 5.9 2.2 5.4 6-.3 2.3-1 4.5-2.1 6.6-.6 1.3-1.4 2.6-2.1 3.8-.7 1-1.5 1.8-2.3 2.8zM298.4 234.8c1-1.2 2.3-2 3.9-2.2 2.6-.4 4.7.7 6.3 2.6 1.4 1.7 2.3 3.7 3.1 5.7.4 1.1.8 2.1 1.1 3.2.6 2.3 1.7 4.4 3.2 6.3 2.2 2.8 1.1 6.5-2.4 7.5-2.3.7-4.6.6-6.7-.8-2.1-1.4-4.4-1.3-6.5 0-2.4 1.5-4.8 1.5-7.3.9-2.6-.6-3.9-2.8-3.2-5.5.4-1.4 1-2.8 1.8-3.9 1-1.5 1.8-3 2.3-4.7.5-1.6 1-3.2 1.6-4.7.5-1.6 1.4-3.1 2.8-4.4z"/><text transform="translate(146.487 572.846)" style="font-size:69.8577px;font-family:'PalatinoLinotype-Roman';fill:#fff;stroke:#fff;stroke-width:.25;stroke-miterlimit:10">GEFAHR!</text></svg>